<svg width="14" height="14" viewBox="0 0 14 14" fill="none" xmlns="http://www.w3.org/2000/svg">
<path fill-rule="evenodd" clip-rule="evenodd" d="M7.4158 13.6071L7.4074 13.6086L7.3577 13.6333L7.3437 13.6361L7.3339 13.6333L7.2842 13.6079C7.27673 13.606 7.27113 13.6074 7.2674 13.6121L7.2646 13.6192L7.2527 13.9216L7.2562 13.9357L7.2632 13.9449L7.336 13.9972L7.3465 14L7.3549 13.9972L7.4277 13.9449L7.4361 13.9336L7.4389 13.9216L7.427 13.6199C7.42513 13.6123 7.4214 13.6081 7.4158 13.6071ZM7.6006 13.5273L7.5908 13.5287L7.462 13.5944L7.455 13.6015L7.4529 13.6093L7.4655 13.9131L7.469 13.9216L7.4746 13.9272L7.6153 13.9922C7.62417 13.9946 7.63093 13.9927 7.6356 13.9866L7.6384 13.9767L7.6146 13.5428C7.61227 13.5339 7.6076 13.5287 7.6006 13.5273ZM7.1001 13.5287C7.09701 13.5268 7.09333 13.5262 7.08981 13.527C7.08629 13.5278 7.0832 13.5299 7.0812 13.533L7.077 13.5428L7.0532 13.9767C7.05367 13.9852 7.05763 13.9908 7.0651 13.9936L7.0756 13.9922L7.2163 13.9265L7.2233 13.9209L7.2254 13.9131L7.238 13.6093L7.2359 13.6008L7.2289 13.5937L7.1001 13.5287Z" fill="#4D4D4D"/>
<path fill-rule="evenodd" clip-rule="evenodd" d="M8.4 0C8.95695 0 9.4911 0.223326 9.88492 0.62085C10.2788 1.01837 10.5 1.55753 10.5 2.11971H12.6C12.9713 2.11971 13.3274 2.2686 13.5899 2.53361C13.8525 2.79863 14 3.15807 14 3.53286V10.5986C14 10.9734 13.8525 11.3328 13.5899 11.5978C13.3274 11.8628 12.9713 12.0117 12.6 12.0117H1.4C1.0287 12.0117 0.672601 11.8628 0.41005 11.5978C0.1475 11.3328 0 10.9734 0 10.5986V3.53286C0 3.15807 0.1475 2.79863 0.41005 2.53361C0.672601 2.2686 1.0287 2.11971 1.4 2.11971H3.5C3.5 1.55753 3.72125 1.01837 4.11508 0.62085C4.5089 0.223326 5.04305 0 5.6 0H8.4ZM4.2 2.82628C4.02855 2.82631 3.86306 2.88984 3.73494 3.00485C3.60682 3.11985 3.52496 3.27831 3.5049 3.45019L3.5 3.53286V10.5986C3.5002 10.7787 3.56852 10.9519 3.69099 11.0828C3.81347 11.2138 3.98087 11.2926 4.15898 11.3031C4.33709 11.3137 4.51247 11.2552 4.64928 11.1396C4.7861 11.024 4.87403 10.8601 4.8951 10.6812L4.9 10.5986V3.53286C4.9 3.34546 4.82625 3.16574 4.69497 3.03323C4.5637 2.90073 4.38565 2.82628 4.2 2.82628ZM9.8 2.82628C9.61435 2.82628 9.4363 2.90073 9.30503 3.03323C9.17375 3.16574 9.1 3.34546 9.1 3.53286V10.5986C9.1 10.786 9.17375 10.9657 9.30503 11.0982C9.4363 11.2307 9.61435 11.3051 9.8 11.3051C9.98565 11.3051 10.1637 11.2307 10.295 11.0982C10.4263 10.9657 10.5 10.786 10.5 10.5986V3.53286C10.5 3.34546 10.4263 3.16574 10.295 3.03323C10.1637 2.90073 9.98565 2.82628 9.8 2.82628ZM8.4 1.41314H5.6C5.42855 1.41317 5.26306 1.4767 5.13494 1.5917C5.00681 1.7067 4.92496 1.86517 4.9049 2.03704L4.9 2.11971H9.1C9.09998 1.94665 9.03703 1.77961 8.9231 1.65029C8.80917 1.52096 8.65217 1.43834 8.4819 1.41809L8.4 1.41314Z" fill="#4D4D4D"/>
</svg>
