<svg width="60" height="49" viewBox="0 0 60 49" fill="none" xmlns="http://www.w3.org/2000/svg">
<path d="M55 9.8V4.9L35 17.15L15 4.9V9.8L35 22.05L55 9.8ZM55 0C56.3261 0 57.5979 0.516248 58.5355 1.43518C59.4732 2.3541 60 3.60044 60 4.9V34.3C60 35.5996 59.4732 36.8459 58.5355 37.7648C57.5979 38.6838 56.3261 39.2 55 39.2H15C13.6739 39.2 12.4021 38.6838 11.4645 37.7648C10.5268 36.8459 10 35.5996 10 34.3V4.9C10 2.1805 12.225 0 15 0H55ZM5 9.8V44.1H50V49H5C3.67392 49 2.40215 48.4837 1.46447 47.5648C0.526784 46.6459 0 45.3996 0 44.1V9.8H5Z" fill="#01307C"/>
</svg>
