<svg width="292" height="1044" viewBox="0 0 292 1044" fill="none" xmlns="http://www.w3.org/2000/svg">
<g opacity="0.5">
<mask id="path-1-inside-1_69_606" fill="white">
<path d="M-353.453 1028.75L-353.564 1028.63C-330.004 997.922 -305.699 966.696 -281.474 935.575C-201.521 832.862 -122.444 731.275 -74.0833 653.351C37.4225 473.683 -14.4628 419.86 -595.377 767.969L-595.497 767.839C-13.9755 419.336 37.9302 473.238 -73.7013 653.108C-122.088 731.072 -201.181 832.681 -281.156 935.421C-305.453 966.636 -329.831 997.955 -353.453 1028.75ZM-349.705 1032.79L-349.819 1032.66C-322.74 996.251 -294.297 958.801 -265.884 921.389C-187.023 817.557 -108.418 714.06 -59.9975 634.095C53.5536 446.565 0.972199 388.511 -603.71 758.987L-603.827 758.86C1.45454 387.987 54.0594 446.117 -59.6137 633.847C-108.056 713.852 -186.678 817.369 -265.554 921.223C-294.042 958.732 -322.562 996.283 -349.705 1032.79ZM-345.292 1037.54L-345.41 1037.42C-315.312 995.591 -282.967 951.936 -250.547 908.184C-172.364 802.667 -93.7579 696.581 -45.2614 614.229C69.5039 419.347 15.5325 357.44 -611.66 750.417L-611.776 750.292C16.0117 356.913 70.0097 418.893 -44.8699 613.97C-93.3867 696.358 -172.008 802.465 -250.207 908.003C-282.708 951.865 -315.132 995.626 -345.292 1037.54ZM-340.207 1043.02L-340.329 1042.89C-307.776 996.058 -271.783 946.263 -235.53 896.111C-157.531 788.206 -78.3422 678.657 -29.7376 593.469C85.2394 391.948 28.9116 326.852 -619.213 742.275L-619.326 742.154C29.3882 326.322 85.7433 391.492 -29.3442 593.206C-77.9641 678.422 -157.169 787.992 -235.183 895.919C-271.521 946.189 -307.597 996.098 -340.207 1043.02ZM-325.933 1036.57L-326.52 1037.12C-294.117 989.152 -257.747 937.58 -220.912 885.352C-142.523 774.201 -62.0408 660.083 -13.3093 571.513C100.704 364.289 40.7757 296.992 -626.353 734.578L-626.463 734.46C41.246 296.462 101.206 363.831 -12.9115 571.242C-61.6633 659.848 -142.158 773.984 -220.56 885.152C-257.305 937.255 -293.591 988.707 -325.933 1036.57ZM-298.532 1011.15L-299.109 1011.69C-270.498 968.686 -238.915 922.797 -206.804 876.142C-127.383 760.746 -44.7405 640.671 4.11675 548.05C115.81 336.3 50.7758 268.133 -633.063 727.345L-633.171 727.23C51.2404 267.603 116.309 335.84 4.5222 547.768C-44.3491 640.419 -127.007 760.515 -206.441 875.929C-238.472 922.467 -269.976 968.243 -298.532 1011.15ZM-271.055 985.662L-271.626 986.191C-247.092 948.76 -220.481 909.157 -193.341 868.77C-112.175 747.982 -26.3172 620.211 22.5929 522.772C130.443 307.918 58.5694 240.573 -639.324 720.597L-639.428 720.484C59.0212 240.049 130.939 307.454 23.0034 522.482C-25.9238 619.954 -111.793 747.744 -192.972 868.55C-220.038 908.826 -246.578 948.321 -271.055 985.662ZM-243.512 960.109L-244.073 960.63C-223.986 929.523 -202.583 896.925 -180.726 863.633C-97.0459 736.182 -6.68043 598.545 42.1104 495.415C144.437 279.118 63.8308 214.631 -645.113 714.356L-645.215 714.246C64.2737 214.109 144.927 278.654 42.5177 495.122C-6.28706 598.282 -96.6646 735.937 -180.357 863.408C-202.145 896.595 -223.482 929.092 -243.512 960.109ZM-215.908 934.501L-216.463 935.016C-201.297 911.179 -185.433 886.476 -169.238 861.259C-82.2439 725.798 14.249 575.549 62.5627 465.789C157.571 249.941 66.1556 190.753 -650.395 708.663L-650.495 708.555C66.5916 190.231 158.059 249.474 62.977 465.485C14.6532 575.272 -81.8543 725.544 -168.863 861.027C-184.993 886.143 -200.8 910.754 -215.908 934.501ZM-188.247 908.84L-188.796 909.35C-179.182 894.016 -169.313 878.329 -159.275 862.377C-68.1579 717.571 36.5618 551.148 83.7805 433.762C168.98 221.951 66.8673 169.865 -640.203 692.464L-639.251 691.581C67.3908 169.399 169.421 221.586 84.1987 433.449C36.9648 550.87 -67.7689 717.315 -158.898 862.141C-168.876 877.998 -178.688 893.594 -188.247 908.84ZM-160.535 883.132L-161.081 883.639C-157.902 878.494 -154.697 873.307 -151.47 868.086C-55.4894 712.791 60.3209 525.411 105.476 399.329C177.824 197.325 68.6856 152.766 -593.956 649.56L-592.959 648.636C69.2072 152.31 178.262 196.963 105.901 399.005C60.7346 525.119 -55.0896 712.522 -151.085 867.839C-154.26 872.976 -157.411 878.074 -160.535 883.132ZM-132.776 857.38L-133.315 857.88C-34.1359 694.993 87.4802 492.572 127.279 362.581C185.329 172.986 69.2451 137.543 -544.335 603.527L-543.301 602.568C69.7692 137.096 185.762 172.632 127.707 362.247C87.9129 492.211 -33.6112 694.515 -132.776 857.38ZM-104.969 831.583L-105.505 832.081C-4.2843 663.421 117.22 452.797 148.715 323.751C191.313 149.203 69.1174 124.01 -490.74 553.807L-489.648 552.794C69.6542 123.564 191.745 148.854 149.142 323.41C117.656 452.428 -3.76844 662.946 -104.969 831.583ZM-77.1276 805.755L-77.6575 806.246C35.8015 614.454 170.586 368.956 172.503 250.299C174.499 126.357 31.4269 140.909 -432.423 499.706L-431.297 498.661C31.991 140.442 174.931 126.002 172.933 249.936C171.019 368.577 36.3219 613.965 -77.1276 805.755ZM-49.2446 779.888L-49.7713 780.376C62.2811 588.233 190.769 342.775 188.723 224.377C186.656 104.742 51.262 114.894 -369.112 440.972L-367.979 439.921C51.8292 114.437 187.089 104.394 189.156 224.011C191.2 342.393 62.7932 587.747 -49.2446 779.888ZM-21.3268 753.988L-21.8503 754.474C88.5556 562.439 210.378 317.758 204.986 199.303C202.882 153.121 181.441 126.127 132.445 128.93C83.4528 131.731 6.90364 164.327 -105.417 237.316C-161.475 273.744 -226.447 320.237 -301.35 378.109L-300.226 377.067C-225.725 319.54 -161.056 273.279 -105.227 237C7.1829 163.953 83.7962 131.331 132.831 128.525C181.857 125.723 203.314 152.727 205.417 198.935C210.811 317.371 89.0633 561.955 -21.3268 753.988ZM6.6292 728.053L6.11203 728.533C120.355 526.984 241.635 268.126 219.032 157.363C211.28 119.372 186.598 98.8053 138.895 103.957C91.1986 109.109 20.4829 139.975 -79.338 204.84C-123.841 233.76 -174.136 269.443 -230.751 312.614L-229.681 311.622C-173.427 268.756 -123.425 233.298 -79.1469 204.524C20.7615 139.601 91.5369 108.71 139.277 103.554C187.007 98.4002 211.704 118.977 219.463 156.987C242.065 267.736 120.856 526.5 6.6292 728.053ZM34.62 702.086L34.1061 702.563C114.708 558.34 196.059 385.138 226.298 257.684C248.893 162.449 242.952 92.7586 186.834 79.7968C130.728 66.8358 24.4599 110.586 -153.601 242.217C-155.699 243.767 -157.806 245.333 -159.92 246.904L-158.955 246.009C-157.128 244.651 -155.303 243.297 -153.488 241.956C24.7296 110.208 131.088 66.4212 187.242 79.3909C243.384 92.3597 249.33 162.074 226.729 257.339C196.497 384.757 115.197 557.881 34.62 702.086ZM62.6331 676.098L62.1255 676.569C145.818 524.695 227.163 341.094 249.61 212.405C264.891 124.789 252.867 62.6313 195.689 53.2862C142.961 44.6653 51.8204 80.9673 -91.7354 183.649L-90.8851 182.861C52.394 80.472 143.406 44.2673 196.093 52.8819C253.296 62.2339 265.326 124.411 250.04 212.055C227.599 340.711 146.301 524.236 62.6331 676.098ZM90.6779 650.081L90.1703 650.552C176.916 490.915 257.541 296.694 271.03 167.755C279.398 87.7607 261.926 32.8967 204.034 27.0276C156.499 22.2099 81.705 50.4362 -28.4054 124.898L-27.6598 124.206C82.2476 49.9583 156.937 21.8101 204.433 26.6242C262.351 32.4959 279.833 87.3772 271.462 167.399C257.976 296.304 177.397 490.453 90.6779 650.081ZM118.745 624.043L118.24 624.511C207.904 457.183 286.957 252.377 290.488 124.241C292.487 51.6747 270.264 3.70302 212.028 1.06533C170.641 -0.810376 111.047 20.2303 29.0358 71.6096L29.6894 71.0033C111.563 19.7676 171.071 -1.21205 212.426 0.659916C270.689 3.29655 292.923 51.2849 290.922 123.875C287.39 251.985 208.382 456.718 118.745 624.043ZM-586.798 777.216C-30.0011 450.787 21.6589 500.313 -87.2649 671.998C-135.604 748.187 -215.545 848.411 -296.961 950.482C-316.882 975.456 -336.89 1000.54 -356.546 1025.41L-356.653 1025.3C-337.062 1000.51 -317.122 975.51 -297.269 950.621C-215.872 848.574 -135.949 748.375 -87.6418 672.234C21.1526 500.754 -30.4872 451.307 -586.675 777.348L-586.798 777.216Z"/>
</mask>
<path d="M-353.453 1028.75L-353.564 1028.63C-330.004 997.922 -305.699 966.696 -281.474 935.575C-201.521 832.862 -122.444 731.275 -74.0833 653.351C37.4225 473.683 -14.4628 419.86 -595.377 767.969L-595.497 767.839C-13.9755 419.336 37.9302 473.238 -73.7013 653.108C-122.088 731.072 -201.181 832.681 -281.156 935.421C-305.453 966.636 -329.831 997.955 -353.453 1028.75ZM-349.705 1032.79L-349.819 1032.66C-322.74 996.251 -294.297 958.801 -265.884 921.389C-187.023 817.557 -108.418 714.06 -59.9975 634.095C53.5536 446.565 0.972199 388.511 -603.71 758.987L-603.827 758.86C1.45454 387.987 54.0594 446.117 -59.6137 633.847C-108.056 713.852 -186.678 817.369 -265.554 921.223C-294.042 958.732 -322.562 996.283 -349.705 1032.79ZM-345.292 1037.54L-345.41 1037.42C-315.312 995.591 -282.967 951.936 -250.547 908.184C-172.364 802.667 -93.7579 696.581 -45.2614 614.229C69.5039 419.347 15.5325 357.44 -611.66 750.417L-611.776 750.292C16.0117 356.913 70.0097 418.893 -44.8699 613.97C-93.3867 696.358 -172.008 802.465 -250.207 908.003C-282.708 951.865 -315.132 995.626 -345.292 1037.54ZM-340.207 1043.02L-340.329 1042.89C-307.776 996.058 -271.783 946.263 -235.53 896.111C-157.531 788.206 -78.3422 678.657 -29.7376 593.469C85.2394 391.948 28.9116 326.852 -619.213 742.275L-619.326 742.154C29.3882 326.322 85.7433 391.492 -29.3442 593.206C-77.9641 678.422 -157.169 787.992 -235.183 895.919C-271.521 946.189 -307.597 996.098 -340.207 1043.02ZM-325.933 1036.57L-326.52 1037.12C-294.117 989.152 -257.747 937.58 -220.912 885.352C-142.523 774.201 -62.0408 660.083 -13.3093 571.513C100.704 364.289 40.7757 296.992 -626.353 734.578L-626.463 734.46C41.246 296.462 101.206 363.831 -12.9115 571.242C-61.6633 659.848 -142.158 773.984 -220.56 885.152C-257.305 937.255 -293.591 988.707 -325.933 1036.57ZM-298.532 1011.15L-299.109 1011.69C-270.498 968.686 -238.915 922.797 -206.804 876.142C-127.383 760.746 -44.7405 640.671 4.11675 548.05C115.81 336.3 50.7758 268.133 -633.063 727.345L-633.171 727.23C51.2404 267.603 116.309 335.84 4.5222 547.768C-44.3491 640.419 -127.007 760.515 -206.441 875.929C-238.472 922.467 -269.976 968.243 -298.532 1011.15ZM-271.055 985.662L-271.626 986.191C-247.092 948.76 -220.481 909.157 -193.341 868.77C-112.175 747.982 -26.3172 620.211 22.5929 522.772C130.443 307.918 58.5694 240.573 -639.324 720.597L-639.428 720.484C59.0212 240.049 130.939 307.454 23.0034 522.482C-25.9238 619.954 -111.793 747.744 -192.972 868.55C-220.038 908.826 -246.578 948.321 -271.055 985.662ZM-243.512 960.109L-244.073 960.63C-223.986 929.523 -202.583 896.925 -180.726 863.633C-97.0459 736.182 -6.68043 598.545 42.1104 495.415C144.437 279.118 63.8308 214.631 -645.113 714.356L-645.215 714.246C64.2737 214.109 144.927 278.654 42.5177 495.122C-6.28706 598.282 -96.6646 735.937 -180.357 863.408C-202.145 896.595 -223.482 929.092 -243.512 960.109ZM-215.908 934.501L-216.463 935.016C-201.297 911.179 -185.433 886.476 -169.238 861.259C-82.2439 725.798 14.249 575.549 62.5627 465.789C157.571 249.941 66.1556 190.753 -650.395 708.663L-650.495 708.555C66.5916 190.231 158.059 249.474 62.977 465.485C14.6532 575.272 -81.8543 725.544 -168.863 861.027C-184.993 886.143 -200.8 910.754 -215.908 934.501ZM-188.247 908.84L-188.796 909.35C-179.182 894.016 -169.313 878.329 -159.275 862.377C-68.1579 717.571 36.5618 551.148 83.7805 433.762C168.98 221.951 66.8673 169.865 -640.203 692.464L-639.251 691.581C67.3908 169.399 169.421 221.586 84.1987 433.449C36.9648 550.87 -67.7689 717.315 -158.898 862.141C-168.876 877.998 -178.688 893.594 -188.247 908.84ZM-160.535 883.132L-161.081 883.639C-157.902 878.494 -154.697 873.307 -151.47 868.086C-55.4894 712.791 60.3209 525.411 105.476 399.329C177.824 197.325 68.6856 152.766 -593.956 649.56L-592.959 648.636C69.2072 152.31 178.262 196.963 105.901 399.005C60.7346 525.119 -55.0896 712.522 -151.085 867.839C-154.26 872.976 -157.411 878.074 -160.535 883.132ZM-132.776 857.38L-133.315 857.88C-34.1359 694.993 87.4802 492.572 127.279 362.581C185.329 172.986 69.2451 137.543 -544.335 603.527L-543.301 602.568C69.7692 137.096 185.762 172.632 127.707 362.247C87.9129 492.211 -33.6112 694.515 -132.776 857.38ZM-104.969 831.583L-105.505 832.081C-4.2843 663.421 117.22 452.797 148.715 323.751C191.313 149.203 69.1174 124.01 -490.74 553.807L-489.648 552.794C69.6542 123.564 191.745 148.854 149.142 323.41C117.656 452.428 -3.76844 662.946 -104.969 831.583ZM-77.1276 805.755L-77.6575 806.246C35.8015 614.454 170.586 368.956 172.503 250.299C174.499 126.357 31.4269 140.909 -432.423 499.706L-431.297 498.661C31.991 140.442 174.931 126.002 172.933 249.936C171.019 368.577 36.3219 613.965 -77.1276 805.755ZM-49.2446 779.888L-49.7713 780.376C62.2811 588.233 190.769 342.775 188.723 224.377C186.656 104.742 51.262 114.894 -369.112 440.972L-367.979 439.921C51.8292 114.437 187.089 104.394 189.156 224.011C191.2 342.393 62.7932 587.747 -49.2446 779.888ZM-21.3268 753.988L-21.8503 754.474C88.5556 562.439 210.378 317.758 204.986 199.303C202.882 153.121 181.441 126.127 132.445 128.93C83.4528 131.731 6.90364 164.327 -105.417 237.316C-161.475 273.744 -226.447 320.237 -301.35 378.109L-300.226 377.067C-225.725 319.54 -161.056 273.279 -105.227 237C7.1829 163.953 83.7962 131.331 132.831 128.525C181.857 125.723 203.314 152.727 205.417 198.935C210.811 317.371 89.0633 561.955 -21.3268 753.988ZM6.6292 728.053L6.11203 728.533C120.355 526.984 241.635 268.126 219.032 157.363C211.28 119.372 186.598 98.8053 138.895 103.957C91.1986 109.109 20.4829 139.975 -79.338 204.84C-123.841 233.76 -174.136 269.443 -230.751 312.614L-229.681 311.622C-173.427 268.756 -123.425 233.298 -79.1469 204.524C20.7615 139.601 91.5369 108.71 139.277 103.554C187.007 98.4002 211.704 118.977 219.463 156.987C242.065 267.736 120.856 526.5 6.6292 728.053ZM34.62 702.086L34.1061 702.563C114.708 558.34 196.059 385.138 226.298 257.684C248.893 162.449 242.952 92.7586 186.834 79.7968C130.728 66.8358 24.4599 110.586 -153.601 242.217C-155.699 243.767 -157.806 245.333 -159.92 246.904L-158.955 246.009C-157.128 244.651 -155.303 243.297 -153.488 241.956C24.7296 110.208 131.088 66.4212 187.242 79.3909C243.384 92.3597 249.33 162.074 226.729 257.339C196.497 384.757 115.197 557.881 34.62 702.086ZM62.6331 676.098L62.1255 676.569C145.818 524.695 227.163 341.094 249.61 212.405C264.891 124.789 252.867 62.6313 195.689 53.2862C142.961 44.6653 51.8204 80.9673 -91.7354 183.649L-90.8851 182.861C52.394 80.472 143.406 44.2673 196.093 52.8819C253.296 62.2339 265.326 124.411 250.04 212.055C227.599 340.711 146.301 524.236 62.6331 676.098ZM90.6779 650.081L90.1703 650.552C176.916 490.915 257.541 296.694 271.03 167.755C279.398 87.7607 261.926 32.8967 204.034 27.0276C156.499 22.2099 81.705 50.4362 -28.4054 124.898L-27.6598 124.206C82.2476 49.9583 156.937 21.8101 204.433 26.6242C262.351 32.4959 279.833 87.3772 271.462 167.399C257.976 296.304 177.397 490.453 90.6779 650.081ZM118.745 624.043L118.24 624.511C207.904 457.183 286.957 252.377 290.488 124.241C292.487 51.6747 270.264 3.70302 212.028 1.06533C170.641 -0.810376 111.047 20.2303 29.0358 71.6096L29.6894 71.0033C111.563 19.7676 171.071 -1.21205 212.426 0.659916C270.689 3.29655 292.923 51.2849 290.922 123.875C287.39 251.985 208.382 456.718 118.745 624.043ZM-586.798 777.216C-30.0011 450.787 21.6589 500.313 -87.2649 671.998C-135.604 748.187 -215.545 848.411 -296.961 950.482C-316.882 975.456 -336.89 1000.54 -356.546 1025.41L-356.653 1025.3C-337.062 1000.51 -317.122 975.51 -297.269 950.621C-215.872 848.574 -135.949 748.375 -87.6418 672.234C21.1526 500.754 -30.4872 451.307 -586.675 777.348L-586.798 777.216Z" stroke="#01307C" stroke-width="2" mask="url(#path-1-inside-1_69_606)"/>
</g>
</svg>
