<svg width="273" height="952" viewBox="0 0 273 952" fill="none" xmlns="http://www.w3.org/2000/svg">
<g opacity="0.3">
<mask id="path-1-inside-1_69_604" fill="white">
<path d="M776.483 935.261L776.575 935.127C748.698 908.28 720.006 881.03 691.41 853.87C597.03 764.234 503.682 675.58 444.239 605.743C307.178 444.719 350.454 383.758 976.798 641.313L976.897 641.166C349.894 383.312 306.61 444.354 443.825 605.559C503.301 675.432 596.667 764.106 691.073 853.766C719.755 881.007 748.532 908.339 776.483 935.261ZM773.38 939.815L773.474 939.676C741.266 907.711 707.555 874.923 673.878 842.169C580.411 751.263 487.246 660.65 427.438 588.803C287.182 420.31 330.515 355.062 983.697 631.188L983.795 631.045C329.96 354.616 286.615 419.943 427.022 588.615C486.857 660.498 580.041 751.129 673.528 842.053C707.293 874.893 741.095 907.77 773.38 939.815ZM769.726 945.177L769.823 945.034C733.823 908.167 695.327 869.826 656.744 831.399C563.694 738.727 470.142 645.554 409.903 571.358C267.35 395.776 311.483 326.511 990.28 621.528L990.376 621.387C310.93 326.061 266.782 395.403 409.478 571.16C469.742 645.388 563.313 738.579 656.38 831.271C695.061 869.794 733.65 908.228 769.726 945.177ZM765.515 951.356L765.616 951.208C726.441 909.753 683.422 865.884 640.093 821.702C546.87 726.64 452.225 630.129 391.456 553.145C247.704 371.031 293.69 298.261 996.535 612.35L996.628 612.214C293.14 297.808 247.137 370.656 391.028 552.944C451.816 629.953 546.48 726.483 639.721 821.563C683.152 865.85 726.27 909.82 765.515 951.356ZM750.438 947.105L751.1 947.556C711.904 904.962 668.248 859.393 624.034 813.243C529.941 715.03 433.335 614.196 371.937 533.886C228.286 345.989 277.504 270.505 1002.45 603.674L1002.54 603.541C276.96 270.051 227.721 345.611 371.503 533.677C432.927 614.019 529.547 714.87 623.656 813.099C667.762 859.137 711.318 904.601 750.438 947.105ZM719.552 926.057L720.203 926.5C685.496 888.248 647.421 847.585 608.71 806.241C512.963 703.985 413.333 597.582 351.205 513.285C209.174 320.567 263.311 243.461 1008 595.521L1008.09 595.391C262.773 243.006 208.612 320.186 350.762 513.066C412.908 597.39 512.557 703.812 608.319 806.085C646.934 847.324 684.915 887.888 719.552 926.057ZM688.58 904.951L689.224 905.389C659.38 872.037 627.159 836.847 594.297 800.96C496.021 693.632 392.064 580.099 329.165 491.046C190.47 294.685 251.494 217.372 1013.19 587.915L1013.27 587.788C250.968 216.921 189.91 294.3 328.716 490.821C391.636 579.903 495.608 693.453 593.9 800.798C626.672 836.586 658.806 871.68 688.58 904.951ZM657.533 883.793L658.166 884.225C633.663 856.462 607.637 827.421 581.058 797.763C479.301 684.221 369.414 561.604 305.785 466.907C172.337 268.295 242.421 192.504 1017.98 580.88L1018.06 580.756C241.905 192.055 171.783 267.91 305.338 466.678C368.986 561.403 478.888 684.036 580.659 797.595C607.155 827.161 633.1 856.111 657.533 883.793ZM626.418 862.59L627.044 863.016C608.491 841.708 589.12 819.648 569.345 797.129C463.116 676.162 345.289 541.988 281.142 440.664C154.997 241.404 236.56 169.241 1022.35 574.463L1022.44 574.341C236.051 168.789 154.445 241.014 280.687 440.425C344.848 541.774 462.692 675.968 568.939 796.955C588.635 819.384 607.936 841.361 626.418 862.59ZM595.238 841.342L595.857 841.764C584.064 828.036 571.964 813.997 559.659 799.721C447.96 670.127 319.585 521.189 255.384 412.16C139.54 215.429 232.74 148.693 1009.86 559.965L1008.79 559.234C232.153 148.31 139.05 215.134 254.924 411.913C319.146 520.973 447.537 669.933 559.251 799.543C571.483 813.734 583.512 827.693 595.238 841.342ZM564.002 820.056L564.617 820.475C560.706 815.862 556.763 811.211 552.793 806.53C434.72 667.291 292.253 499.284 228.794 381.349C127.121 192.398 228.392 132.057 957.729 524.441L956.606 523.675C227.808 131.684 126.634 192.105 228.326 381.091C291.8 499.057 434.285 667.085 552.376 806.344C556.282 810.949 560.158 815.52 564.002 820.056ZM532.711 798.733L533.319 799.147C410.951 652.877 260.499 470.864 201.754 348.264C116.069 169.451 225.567 117.087 901.797 486.325L900.631 485.531C224.983 116.724 115.589 169.165 201.28 347.998C260.017 470.572 410.36 652.483 532.711 798.733ZM501.368 777.373L501.972 777.785C376.723 626.112 225.159 435.971 174.764 313.067C106.605 146.827 223.675 103.687 841.383 445.156L840.153 444.318C223.078 103.326 106.125 146.546 174.291 312.793C224.672 435.671 376.142 625.719 501.368 777.373ZM469.984 755.986L470.582 756.393C329.781 583.673 159.882 361.029 140.285 243.986C119.822 121.728 263.465 114.774 775.649 400.36L774.379 399.495C262.837 114.396 119.342 121.441 139.806 243.69C159.397 360.718 329.194 583.267 469.984 755.986ZM438.555 734.568L439.148 734.973C299.686 561.695 136.019 338.151 120.38 220.773C104.577 102.168 239.971 92.0092 704.284 351.728L703.007 350.858C239.341 91.6413 104.097 101.888 119.897 220.476C135.536 337.838 299.107 561.291 438.555 734.568ZM407.085 713.123L407.676 713.525C269.858 540.109 112.897 316.339 100.559 198.406C95.7494 152.427 112.924 122.536 161.79 117.998C210.652 113.46 291.207 134.271 413.159 189.688C474.023 217.346 545.205 253.627 627.902 299.677L626.636 298.814C544.386 253.045 473.54 216.948 412.924 189.404C290.875 133.944 210.253 113.116 161.348 117.656C112.452 122.198 95.264 152.101 100.077 198.106C112.412 316.022 269.284 539.707 407.085 713.123ZM375.573 691.649L376.156 692.046C233.126 509.795 74.5864 271.926 80.413 159.031C82.4112 120.308 103.749 96.2894 151.686 94.2676C199.618 92.2464 274.147 112.218 382.527 161.466C430.847 183.423 485.902 211.205 548.323 245.447L547.118 244.625C485.099 210.631 430.367 183.028 382.291 161.182C273.815 111.889 199.224 91.9023 151.249 93.9256C103.284 95.9498 81.9325 119.98 79.9315 158.723C74.1035 271.604 232.558 509.391 375.573 691.649ZM344.022 670.148L344.601 670.543C243.387 539.958 137.108 380.83 88.1938 259.313C51.6451 168.514 47.1238 98.717 100.68 77.5286C154.224 56.3431 265.83 83.7507 461.535 187.346C463.84 188.567 466.158 189.8 468.482 191.039L467.395 190.298C465.386 189.227 463.379 188.16 461.385 187.105C265.507 83.4177 153.807 55.9867 100.216 77.1883C46.6364 98.3871 51.1568 168.208 87.717 259.036C136.618 380.519 242.835 539.577 344.022 670.148ZM312.446 648.63L313.018 649.02C207.606 511.33 99.7814 341.919 58.3889 218.018C30.2081 133.661 32.8246 70.406 87.9693 52.6357C138.822 36.2454 234.357 58.5452 391.625 138.663L390.666 138.01C233.716 58.141 138.322 35.9183 87.5092 52.2963C32.3418 70.077 29.7219 133.353 57.9106 217.736C99.2938 341.605 207.059 510.948 312.446 648.63ZM280.834 627.088L281.406 627.478C171.817 482.567 63.1203 302.547 30.547 177.063C10.3402 99.2119 19.4321 42.3554 75.8002 27.9159C122.085 16.0609 200.253 32.8138 320.239 90.0164L319.399 89.4437C199.645 32.4222 121.592 15.7309 75.3454 27.5766C18.9519 42.0225 9.85255 98.8977 30.0673 176.776C62.6317 302.226 171.272 482.182 280.834 627.088ZM249.196 605.528L249.765 605.916C136.143 453.835 27.4219 263.114 4.81559 136.938C-7.98628 65.4824 6.83244 14.7322 64.0224 3.43667C104.667 -4.59219 166.733 7.32311 255.491 45.8933L254.754 45.3912C166.154 6.9424 104.182 -4.92518 63.5691 3.09506C6.35077 14.3938 -8.47486 65.1618 4.33187 136.641C26.9354 262.791 135.601 453.447 249.196 605.528ZM969.695 651.736C370.432 412.021 326.738 468.699 460.055 622.214C519.219 690.34 613.217 777.517 708.948 866.3C732.372 888.023 755.897 909.842 779.044 931.503L779.133 931.373C756.063 909.785 732.617 888.04 709.273 866.392C613.564 777.63 519.588 690.474 460.463 622.391C327.305 469.06 370.99 412.462 969.593 651.885L969.695 651.736Z"/>
</mask>
<path d="M776.483 935.261L776.575 935.127C748.698 908.28 720.006 881.03 691.41 853.87C597.03 764.234 503.682 675.58 444.239 605.743C307.178 444.719 350.454 383.758 976.798 641.313L976.897 641.166C349.894 383.312 306.61 444.354 443.825 605.559C503.301 675.432 596.667 764.106 691.073 853.766C719.755 881.007 748.532 908.339 776.483 935.261ZM773.38 939.815L773.474 939.676C741.266 907.711 707.555 874.923 673.878 842.169C580.411 751.263 487.246 660.65 427.438 588.803C287.182 420.31 330.515 355.062 983.697 631.188L983.795 631.045C329.96 354.616 286.615 419.943 427.022 588.615C486.857 660.498 580.041 751.129 673.528 842.053C707.293 874.893 741.095 907.77 773.38 939.815ZM769.726 945.177L769.823 945.034C733.823 908.167 695.327 869.826 656.744 831.399C563.694 738.727 470.142 645.554 409.903 571.358C267.35 395.776 311.483 326.511 990.28 621.528L990.376 621.387C310.93 326.061 266.782 395.403 409.478 571.16C469.742 645.388 563.313 738.579 656.38 831.271C695.061 869.794 733.65 908.228 769.726 945.177ZM765.515 951.356L765.616 951.208C726.441 909.753 683.422 865.884 640.093 821.702C546.87 726.64 452.225 630.129 391.456 553.145C247.704 371.031 293.69 298.261 996.535 612.35L996.628 612.214C293.14 297.808 247.137 370.656 391.028 552.944C451.816 629.953 546.48 726.483 639.721 821.563C683.152 865.85 726.27 909.82 765.515 951.356ZM750.438 947.105L751.1 947.556C711.904 904.962 668.248 859.393 624.034 813.243C529.941 715.03 433.335 614.196 371.937 533.886C228.286 345.989 277.504 270.505 1002.45 603.674L1002.54 603.541C276.96 270.051 227.721 345.611 371.503 533.677C432.927 614.019 529.547 714.87 623.656 813.099C667.762 859.137 711.318 904.601 750.438 947.105ZM719.552 926.057L720.203 926.5C685.496 888.248 647.421 847.585 608.71 806.241C512.963 703.985 413.333 597.582 351.205 513.285C209.174 320.567 263.311 243.461 1008 595.521L1008.09 595.391C262.773 243.006 208.612 320.186 350.762 513.066C412.908 597.39 512.557 703.812 608.319 806.085C646.934 847.324 684.915 887.888 719.552 926.057ZM688.58 904.951L689.224 905.389C659.38 872.037 627.159 836.847 594.297 800.96C496.021 693.632 392.064 580.099 329.165 491.046C190.47 294.685 251.494 217.372 1013.19 587.915L1013.27 587.788C250.968 216.921 189.91 294.3 328.716 490.821C391.636 579.903 495.608 693.453 593.9 800.798C626.672 836.586 658.806 871.68 688.58 904.951ZM657.533 883.793L658.166 884.225C633.663 856.462 607.637 827.421 581.058 797.763C479.301 684.221 369.414 561.604 305.785 466.907C172.337 268.295 242.421 192.504 1017.98 580.88L1018.06 580.756C241.905 192.055 171.783 267.91 305.338 466.678C368.986 561.403 478.888 684.036 580.659 797.595C607.155 827.161 633.1 856.111 657.533 883.793ZM626.418 862.59L627.044 863.016C608.491 841.708 589.12 819.648 569.345 797.129C463.116 676.162 345.289 541.988 281.142 440.664C154.997 241.404 236.56 169.241 1022.35 574.463L1022.44 574.341C236.051 168.789 154.445 241.014 280.687 440.425C344.848 541.774 462.692 675.968 568.939 796.955C588.635 819.384 607.936 841.361 626.418 862.59ZM595.238 841.342L595.857 841.764C584.064 828.036 571.964 813.997 559.659 799.721C447.96 670.127 319.585 521.189 255.384 412.16C139.54 215.429 232.74 148.693 1009.86 559.965L1008.79 559.234C232.153 148.31 139.05 215.134 254.924 411.913C319.146 520.973 447.537 669.933 559.251 799.543C571.483 813.734 583.512 827.693 595.238 841.342ZM564.002 820.056L564.617 820.475C560.706 815.862 556.763 811.211 552.793 806.53C434.72 667.291 292.253 499.284 228.794 381.349C127.121 192.398 228.392 132.057 957.729 524.441L956.606 523.675C227.808 131.684 126.634 192.105 228.326 381.091C291.8 499.057 434.285 667.085 552.376 806.344C556.282 810.949 560.158 815.52 564.002 820.056ZM532.711 798.733L533.319 799.147C410.951 652.877 260.499 470.864 201.754 348.264C116.069 169.451 225.567 117.087 901.797 486.325L900.631 485.531C224.983 116.724 115.589 169.165 201.28 347.998C260.017 470.572 410.36 652.483 532.711 798.733ZM501.368 777.373L501.972 777.785C376.723 626.112 225.159 435.971 174.764 313.067C106.605 146.827 223.675 103.687 841.383 445.156L840.153 444.318C223.078 103.326 106.125 146.546 174.291 312.793C224.672 435.671 376.142 625.719 501.368 777.373ZM469.984 755.986L470.582 756.393C329.781 583.673 159.882 361.029 140.285 243.986C119.822 121.728 263.465 114.774 775.649 400.36L774.379 399.495C262.837 114.396 119.342 121.441 139.806 243.69C159.397 360.718 329.194 583.267 469.984 755.986ZM438.555 734.568L439.148 734.973C299.686 561.695 136.019 338.151 120.38 220.773C104.577 102.168 239.971 92.0092 704.284 351.728L703.007 350.858C239.341 91.6413 104.097 101.888 119.897 220.476C135.536 337.838 299.107 561.291 438.555 734.568ZM407.085 713.123L407.676 713.525C269.858 540.109 112.897 316.339 100.559 198.406C95.7494 152.427 112.924 122.536 161.79 117.998C210.652 113.46 291.207 134.271 413.159 189.688C474.023 217.346 545.205 253.627 627.902 299.677L626.636 298.814C544.386 253.045 473.54 216.948 412.924 189.404C290.875 133.944 210.253 113.116 161.348 117.656C112.452 122.198 95.264 152.101 100.077 198.106C112.412 316.022 269.284 539.707 407.085 713.123ZM375.573 691.649L376.156 692.046C233.126 509.795 74.5864 271.926 80.413 159.031C82.4112 120.308 103.749 96.2894 151.686 94.2676C199.618 92.2464 274.147 112.218 382.527 161.466C430.847 183.423 485.902 211.205 548.323 245.447L547.118 244.625C485.099 210.631 430.367 183.028 382.291 161.182C273.815 111.889 199.224 91.9023 151.249 93.9256C103.284 95.9498 81.9325 119.98 79.9315 158.723C74.1035 271.604 232.558 509.391 375.573 691.649ZM344.022 670.148L344.601 670.543C243.387 539.958 137.108 380.83 88.1938 259.313C51.6451 168.514 47.1238 98.717 100.68 77.5286C154.224 56.3431 265.83 83.7507 461.535 187.346C463.84 188.567 466.158 189.8 468.482 191.039L467.395 190.298C465.386 189.227 463.379 188.16 461.385 187.105C265.507 83.4177 153.807 55.9867 100.216 77.1883C46.6364 98.3871 51.1568 168.208 87.717 259.036C136.618 380.519 242.835 539.577 344.022 670.148ZM312.446 648.63L313.018 649.02C207.606 511.33 99.7814 341.919 58.3889 218.018C30.2081 133.661 32.8246 70.406 87.9693 52.6357C138.822 36.2454 234.357 58.5452 391.625 138.663L390.666 138.01C233.716 58.141 138.322 35.9183 87.5092 52.2963C32.3418 70.077 29.7219 133.353 57.9106 217.736C99.2938 341.605 207.059 510.948 312.446 648.63ZM280.834 627.088L281.406 627.478C171.817 482.567 63.1203 302.547 30.547 177.063C10.3402 99.2119 19.4321 42.3554 75.8002 27.9159C122.085 16.0609 200.253 32.8138 320.239 90.0164L319.399 89.4437C199.645 32.4222 121.592 15.7309 75.3454 27.5766C18.9519 42.0225 9.85255 98.8977 30.0673 176.776C62.6317 302.226 171.272 482.182 280.834 627.088ZM249.196 605.528L249.765 605.916C136.143 453.835 27.4219 263.114 4.81559 136.938C-7.98628 65.4824 6.83244 14.7322 64.0224 3.43667C104.667 -4.59219 166.733 7.32311 255.491 45.8933L254.754 45.3912C166.154 6.9424 104.182 -4.92518 63.5691 3.09506C6.35077 14.3938 -8.47486 65.1618 4.33187 136.641C26.9354 262.791 135.601 453.447 249.196 605.528ZM969.695 651.736C370.432 412.021 326.738 468.699 460.055 622.214C519.219 690.34 613.217 777.517 708.948 866.3C732.372 888.023 755.897 909.842 779.044 931.503L779.133 931.373C756.063 909.785 732.617 888.04 709.273 866.392C613.564 777.63 519.588 690.474 460.463 622.391C327.305 469.06 370.99 412.462 969.593 651.885L969.695 651.736Z" stroke="#01307C" stroke-width="2" mask="url(#path-1-inside-1_69_604)"/>
</g>
</svg>
