<svg width="200" height="33" viewBox="0 0 200 33" fill="none" xmlns="http://www.w3.org/2000/svg">
<path d="M11.608 24.224C9.496 24.224 7.55467 23.7333 5.784 22.752C4.03467 21.7707 2.63733 20.4053 1.592 18.656C0.568 16.8853 0.056 14.9013 0.056 12.704C0.056 10.5067 0.568 8.53333 1.592 6.784C2.63733 5.03467 4.03467 3.66933 5.784 2.688C7.55467 1.70667 9.496 1.216 11.608 1.216C13.72 1.216 15.6507 1.70667 17.4 2.688C19.1707 3.66933 20.5573 5.03467 21.56 6.784C22.584 8.53333 23.096 10.5067 23.096 12.704C23.096 14.9013 22.584 16.8853 21.56 18.656C20.536 20.4053 19.1493 21.7707 17.4 22.752C15.6507 23.7333 13.72 24.224 11.608 24.224ZM11.608 19.232C13.4 19.232 14.8293 18.6347 15.896 17.44C16.984 16.2453 17.528 14.6667 17.528 12.704C17.528 10.72 16.984 9.14133 15.896 7.968C14.8293 6.77333 13.4 6.176 11.608 6.176C9.79467 6.176 8.344 6.76267 7.256 7.936C6.18933 9.10933 5.656 10.6987 5.656 12.704C5.656 14.688 6.18933 16.2773 7.256 17.472C8.344 18.6453 9.79467 19.232 11.608 19.232ZM37.0203 5.952C39.1109 5.952 40.7749 6.63467 42.0123 8C43.2709 9.344 43.9003 11.2 43.9003 13.568V24H38.4603V14.304C38.4603 13.1093 38.1509 12.1813 37.5323 11.52C36.9136 10.8587 36.0816 10.528 35.0363 10.528C33.9909 10.528 33.1589 10.8587 32.5403 11.52C31.9216 12.1813 31.6123 13.1093 31.6123 14.304V24H26.1403V6.144H31.6123V8.512C32.1669 7.72267 32.9136 7.104 33.8523 6.656C34.7909 6.18667 35.8469 5.952 37.0203 5.952ZM46.6148 15.072C46.6148 13.216 46.9881 11.5947 47.7348 10.208C48.5028 8.82133 49.5588 7.75467 50.9028 7.008C52.2681 6.26133 53.8254 5.888 55.5748 5.888C57.8148 5.888 59.6814 6.47467 61.1748 7.648C62.6894 8.82133 63.6814 10.4747 64.1508 12.608H58.3268C57.8361 11.2427 56.8868 10.56 55.4788 10.56C54.4761 10.56 53.6761 10.9547 53.0788 11.744C52.4814 12.512 52.1828 13.6213 52.1828 15.072C52.1828 16.5227 52.4814 17.6427 53.0788 18.432C53.6761 19.2 54.4761 19.584 55.4788 19.584C56.8868 19.584 57.8361 18.9013 58.3268 17.536H64.1508C63.6814 19.6267 62.6894 21.2693 61.1748 22.464C59.6601 23.6587 57.7934 24.256 55.5748 24.256C53.8254 24.256 52.2681 23.8827 50.9028 23.136C49.5588 22.3893 48.5028 21.3227 47.7348 19.936C46.9881 18.5493 46.6148 16.928 46.6148 15.072Z" fill="#FFA200"/>
<path d="M71.1098 1.76V15.936C71.1098 17.6213 71.5471 18.8907 72.4218 19.744C73.3178 20.5973 74.5551 21.024 76.1338 21.024C77.7338 21.024 78.9711 20.5973 79.8458 19.744C80.7418 18.8907 81.1898 17.6213 81.1898 15.936V1.76H84.8378V15.872C84.8378 17.6853 84.4431 19.2213 83.6538 20.48C82.8644 21.7387 81.8084 22.6773 80.4858 23.296C79.1631 23.9147 77.7018 24.224 76.1018 24.224C74.5018 24.224 73.0404 23.9147 71.7178 23.296C70.4164 22.6773 69.3818 21.7387 68.6138 20.48C67.8458 19.2213 67.4618 17.6853 67.4618 15.872V1.76H71.1098ZM93.2355 8.96C93.8542 8.14933 94.6968 7.46667 95.7635 6.912C96.8302 6.35733 98.0355 6.08 99.3795 6.08C100.916 6.08 102.313 6.464 103.572 7.232C104.852 7.97867 105.854 9.03467 106.58 10.4C107.305 11.7653 107.668 13.3333 107.668 15.104C107.668 16.8747 107.305 18.464 106.58 19.872C105.854 21.2587 104.852 22.3467 103.572 23.136C102.313 23.904 100.916 24.288 99.3795 24.288C98.0355 24.288 96.8408 24.0213 95.7955 23.488C94.7502 22.9333 93.8968 22.2507 93.2355 21.44V32.384H89.5875V6.368H93.2355V8.96ZM103.956 15.104C103.956 13.888 103.7 12.8427 103.188 11.968C102.697 11.072 102.036 10.4 101.204 9.952C100.393 9.48267 99.5182 9.248 98.5795 9.248C97.6622 9.248 96.7875 9.48267 95.9555 9.952C95.1448 10.4213 94.4835 11.104 93.9715 12C93.4808 12.896 93.2355 13.952 93.2355 15.168C93.2355 16.384 93.4808 17.4507 93.9715 18.368C94.4835 19.264 95.1448 19.9467 95.9555 20.416C96.7875 20.8853 97.6622 21.12 98.5795 21.12C99.5182 21.12 100.393 20.8853 101.204 20.416C102.036 19.9253 102.697 19.2213 103.188 18.304C103.7 17.3867 103.956 16.32 103.956 15.104ZM110.059 15.104C110.059 13.3333 110.422 11.7653 111.147 10.4C111.894 9.03467 112.896 7.97867 114.155 7.232C115.435 6.464 116.854 6.08 118.411 6.08C119.563 6.08 120.694 6.336 121.803 6.848C122.934 7.33867 123.83 8 124.491 8.832V0.32H128.171V24H124.491V21.344C123.894 22.1973 123.062 22.9013 121.995 23.456C120.95 24.0107 119.744 24.288 118.379 24.288C116.843 24.288 115.435 23.904 114.155 23.136C112.896 22.3467 111.894 21.2587 111.147 19.872C110.422 18.464 110.059 16.8747 110.059 15.104ZM124.491 15.168C124.491 13.952 124.235 12.896 123.723 12C123.232 11.104 122.582 10.4213 121.771 9.952C120.96 9.48267 120.086 9.248 119.147 9.248C118.208 9.248 117.334 9.48267 116.523 9.952C115.712 10.4 115.051 11.072 114.539 11.968C114.048 12.8427 113.803 13.888 113.803 15.104C113.803 16.32 114.048 17.3867 114.539 18.304C115.051 19.2213 115.712 19.9253 116.523 20.416C117.355 20.8853 118.23 21.12 119.147 21.12C120.086 21.12 120.96 20.8853 121.771 20.416C122.582 19.9467 123.232 19.264 123.723 18.368C124.235 17.4507 124.491 16.384 124.491 15.168ZM131.747 15.104C131.747 13.3333 132.109 11.7653 132.835 10.4C133.581 9.03467 134.584 7.97867 135.843 7.232C137.123 6.464 138.531 6.08 140.067 6.08C141.453 6.08 142.659 6.35733 143.683 6.912C144.728 7.44533 145.56 8.11733 146.179 8.928V6.368H149.859V24H146.179V21.376C145.56 22.208 144.717 22.9013 143.651 23.456C142.584 24.0107 141.368 24.288 140.003 24.288C138.488 24.288 137.101 23.904 135.843 23.136C134.584 22.3467 133.581 21.2587 132.835 19.872C132.109 18.464 131.747 16.8747 131.747 15.104ZM146.179 15.168C146.179 13.952 145.923 12.896 145.411 12C144.92 11.104 144.269 10.4213 143.459 9.952C142.648 9.48267 141.773 9.248 140.835 9.248C139.896 9.248 139.021 9.48267 138.211 9.952C137.4 10.4 136.739 11.072 136.227 11.968C135.736 12.8427 135.491 13.888 135.491 15.104C135.491 16.32 135.736 17.3867 136.227 18.304C136.739 19.2213 137.4 19.9253 138.211 20.416C139.043 20.8853 139.917 21.12 140.835 21.12C141.773 21.12 142.648 20.8853 143.459 20.416C144.269 19.9467 144.92 19.264 145.411 18.368C145.923 17.4507 146.179 16.384 146.179 15.168ZM158.906 9.344V19.104C158.906 19.7653 159.055 20.2453 159.354 20.544C159.674 20.8213 160.207 20.96 160.954 20.96H163.194V24H160.314C158.671 24 157.413 23.616 156.538 22.848C155.663 22.08 155.226 20.832 155.226 19.104V9.344H153.146V6.368H155.226V1.984H158.906V6.368H163.194V9.344H158.906ZM182.716 14.752C182.716 15.4133 182.674 16.0107 182.588 16.544H169.116C169.223 17.952 169.746 19.0827 170.684 19.936C171.623 20.7893 172.775 21.216 174.14 21.216C176.103 21.216 177.49 20.3947 178.3 18.752H182.236C181.703 20.3733 180.732 21.7067 179.324 22.752C177.938 23.776 176.21 24.288 174.14 24.288C172.455 24.288 170.94 23.9147 169.596 23.168C168.274 22.4 167.228 21.3333 166.46 19.968C165.714 18.5813 165.34 16.9813 165.34 15.168C165.34 13.3547 165.703 11.7653 166.428 10.4C167.175 9.01333 168.21 7.94667 169.532 7.2C170.876 6.45333 172.412 6.08 174.14 6.08C175.804 6.08 177.287 6.44267 178.588 7.168C179.89 7.89333 180.903 8.91733 181.628 10.24C182.354 11.5413 182.716 13.0453 182.716 14.752ZM178.908 13.6C178.887 12.256 178.407 11.1787 177.468 10.368C176.53 9.55733 175.367 9.152 173.98 9.152C172.722 9.152 171.644 9.55733 170.748 10.368C169.852 11.1573 169.319 12.2347 169.148 13.6H178.908ZM192.706 24.288C191.32 24.288 190.072 24.0427 188.962 23.552C187.874 23.04 187.01 22.3573 186.37 21.504C185.73 20.6293 185.389 19.6587 185.346 18.592H189.122C189.186 19.3387 189.538 19.968 190.178 20.48C190.84 20.9707 191.661 21.216 192.642 21.216C193.666 21.216 194.456 21.024 195.01 20.64C195.586 20.2347 195.874 19.7227 195.874 19.104C195.874 18.4427 195.554 17.952 194.914 17.632C194.296 17.312 193.304 16.96 191.938 16.576C190.616 16.2133 189.538 15.8613 188.706 15.52C187.874 15.1787 187.149 14.656 186.53 13.952C185.933 13.248 185.634 12.32 185.634 11.168C185.634 10.2293 185.912 9.376 186.466 8.608C187.021 7.81867 187.81 7.2 188.834 6.752C189.88 6.304 191.074 6.08 192.418 6.08C194.424 6.08 196.034 6.592 197.25 7.616C198.488 8.61867 199.149 9.99467 199.234 11.744H195.586C195.522 10.9547 195.202 10.3253 194.626 9.856C194.05 9.38667 193.272 9.152 192.29 9.152C191.33 9.152 190.594 9.33333 190.082 9.696C189.57 10.0587 189.314 10.5387 189.314 11.136C189.314 11.6053 189.485 12 189.826 12.32C190.168 12.64 190.584 12.896 191.074 13.088C191.565 13.2587 192.29 13.4827 193.25 13.76C194.53 14.1013 195.576 14.4533 196.386 14.816C197.218 15.1573 197.933 15.6693 198.53 16.352C199.128 17.0347 199.437 17.9413 199.458 19.072C199.458 20.0747 199.181 20.9707 198.626 21.76C198.072 22.5493 197.282 23.168 196.258 23.616C195.256 24.064 194.072 24.288 192.706 24.288Z" fill="white"/>
</svg>
