<svg width="37" height="37" viewBox="0 0 37 37" fill="none" xmlns="http://www.w3.org/2000/svg">
<g clip-path="url(#clip0_111_83)">
<path d="M28.5991 16.1537C22.8844 12.7599 13.4581 12.4479 8.00274 14.1036C7.12665 14.3695 6.2002 13.8747 5.93483 12.9989C5.66929 12.1223 6.16332 11.1965 7.04006 10.9302C13.3025 9.02928 23.7128 9.39637 30.2917 13.3016C31.0796 13.7695 31.3381 14.7872 30.8711 15.5738C30.4037 16.3617 29.3852 16.6215 28.5991 16.1537ZM28.412 21.1804C28.011 21.8309 27.1604 22.035 26.5107 21.6355C21.7463 18.7069 14.4814 17.8585 8.84482 19.5695C8.11388 19.7904 7.34182 19.3782 7.11979 18.6487C6.89955 17.9178 7.31189 17.1471 8.04152 16.9248C14.4805 14.9709 22.4852 15.9173 27.9572 19.2801C28.607 19.6803 28.8115 20.5313 28.412 21.1804ZM26.2427 26.0078C25.924 26.5303 25.2438 26.694 24.7233 26.3755C20.5601 23.8311 15.32 23.2565 9.14889 24.666C8.55422 24.8024 7.96154 24.4297 7.82592 23.8351C7.68971 23.2407 8.06095 22.6479 8.65694 22.5122C15.4102 20.9683 21.2031 21.6328 25.876 24.4882C26.397 24.8064 26.5611 25.487 26.2427 26.0078ZM18.1121 0.436913C8.32095 0.436913 0.383423 8.37427 0.383423 18.1653C0.383423 27.9574 8.32095 35.8941 18.1121 35.8941C27.9035 35.8941 35.8406 27.9574 35.8406 18.1653C35.8406 8.37427 27.9035 0.436913 18.1121 0.436913Z" fill="#1ED760"/>
</g>
<defs>
<clipPath id="clip0_111_83">
<rect width="36" height="36" fill="white" transform="translate(0.112 0.165527)"/>
</clipPath>
</defs>
</svg>
