<svg width="12" height="14" viewBox="0 0 12 14" fill="none" xmlns="http://www.w3.org/2000/svg">
<path d="M6 7.14612C8.86692 7.14612 11.8088 9.03878 11.9993 12.8411C12.0066 12.9877 11.9564 13.1312 11.8595 13.2402C11.7627 13.3491 11.6273 13.4146 11.4829 13.4223C9.9702 13.5005 2.96435 13.5485 0.517793 13.4223C0.373324 13.4148 0.237686 13.3494 0.140714 13.2404C0.0437415 13.1314 -0.00662251 12.9878 0.000699972 12.8411C0.191246 9.03952 3.13308 7.14612 6 7.14612ZM6 0.5C5.27668 0.5 4.58298 0.791756 4.07152 1.31108C3.56005 1.83041 3.27271 2.53477 3.27271 3.26921C3.27271 4.00366 3.56005 4.70802 4.07152 5.22735C4.58298 5.74667 5.27668 6.03843 6 6.03843C6.72332 6.03843 7.41702 5.74667 7.92848 5.22735C8.43995 4.70802 8.72728 4.00366 8.72728 3.26921C8.72728 2.53477 8.43995 1.83041 7.92848 1.31108C7.41702 0.791756 6.72332 0.5 6 0.5Z" fill="#4D4D4D"/>
</svg>
